<svg xmlns="http://www.w3.org/2000/svg" viewBox="0 0 100 100" fill="currentColor">
  <circle cx="50" cy="50" r="45" fill="#1E40AF" />
  <path d="M27.5,36.2c-3.8,0.8-6.8,2.3-9.1,4.5c-2.3,2.2-3.4,4.8-3.4,7.8c0,3,1.1,5.6,3.4,7.8c2.3,2.2,5.3,3.7,9.1,4.5
    c3.8,0.8,8.1,0.8,11.9,0c3.8-0.8,6.8-2.3,9.1-4.5c2.3-2.2,3.4-4.8,3.4-7.8c0-3-1.1-5.6-3.4-7.8c-2.3-2.2-5.3-3.7-9.1-4.5
    C35.6,35.4,31.3,35.4,27.5,36.2z" fill="white" />
  <path d="M63.1,13.8c1.5,0.6,2.9,1.5,4.1,2.6c1.2,1.1,2.1,2.5,2.8,4c0.7,1.5,1,3.2,1,4.9c0,1.7-0.3,3.4-1,4.9
    c-0.7,1.5-1.6,2.9-2.8,4c-1.2,1.1-2.6,2-4.1,2.6c-1.6,0.6-3.3,0.9-5,0.9c-1.7,0-3.4-0.3-5-0.9c-1.5-0.6-2.9-1.5-4.1-2.6
    c-1.2-1.1-2.1-2.5-2.8-4c-0.7-1.5-1-3.2-1-4.9c0-1.7,0.3-3.4,1-4.9c0.7-1.5,1.6-2.9,2.8-4c1.2-1.1,2.6-2,4.1-2.6
    c1.6-0.6,3.3-0.9,5-0.9C59.8,12.9,61.5,13.2,63.1,13.8z" fill="white" />
</svg> 