<svg width="180" height="47" viewBox="0 0 180 47" fill="none" xmlns="http://www.w3.org/2000/svg">
<path d="M66.0577 23.112C66.3959 23.8683 67.2831 24.2075 68.0394 23.8695C68.7956 23.5315 69.1346 22.6444 68.7964 21.888L66.0577 23.112ZM76.7573 20L78.0608 20.7426L76.7573 20ZM82.6592 4L84.1549 4.11357C84.2117 3.36342 83.704 2.68711 82.9677 2.53215C82.2315 2.3772 81.4946 2.79155 81.2445 3.50101L82.6592 4ZM73.2602 26.7187L71.9332 26.0192L71.8816 26.117L71.845 26.2214L73.2602 26.7187ZM71.3368 31.4131L72.6775 32.0862L72.6816 32.0779L71.3368 31.4131ZM75.0737 23.8136L73.8512 22.9442L73.8471 22.9499L75.0737 23.8136ZM80.3523 23.0672L81.3281 21.9283L81.3276 21.9278L80.3523 23.0672ZM79.6897 29.6619L78.4278 30.4726L78.4321 30.4792L79.6897 29.6619ZM83.1537 30.7105L83.4195 32.1869L83.4245 32.186L83.1537 30.7105ZM87.3098 25.1647L85.9527 24.5254L85.9514 24.5281L87.3098 25.1647ZM88.5507 22.6434L88.3832 24.134L88.3977 24.1356L88.4121 24.137L88.5507 22.6434ZM86.5272 27.0883L85.1977 26.3933L85.1932 26.402L86.5272 27.0883ZM92.4651 29.9974L91.9007 28.6074L91.8997 28.6078L92.4651 29.9974ZM93.6053 28.8767L95.0055 29.4149L95.0078 29.4088L93.6053 28.8767ZM96.1193 23.2373L94.6211 23.164L94.6209 23.1681L96.1193 23.2373ZM89.0425 42.2651L90.1429 43.2848L90.2498 43.1695L90.3304 43.0345L89.0425 42.2651ZM94.0005 30.2651L92.6421 29.6286L92.5198 29.8896L92.5031 30.1773L94.0005 30.2651ZM99.4854 24.2351L99.271 25.7197L99.2712 25.7197L99.4854 24.2351ZM97.8954 31.4131L97.7053 32.901L97.8002 32.9131L97.8958 32.9131L97.8954 31.4131ZM107.628 28.2225L109.001 28.8273L106.581 27.148L107.628 28.2225ZM107.505 28.8515L106.172 28.1633L106.171 28.1659L107.505 28.8515ZM110.068 23.1724L108.57 23.0999L108.57 23.1029L110.068 23.1724ZM103.305 41.7651L104.479 42.6997L104.694 42.4297L104.769 42.0928L103.305 41.7651ZM102.808 41.271L101.471 40.5893L101.47 40.5928L102.808 41.271ZM109.716 25.3796L111.125 25.896L111.126 25.8927L109.716 25.3796ZM120.519 30.6284L120.519 29.1284L120.388 29.1284L120.259 29.1512L120.519 30.6284ZM121.239 28.8767L122.738 28.9188L122.739 28.898L122.739 28.8771L121.239 28.8767ZM125.448 30.7105L125.448 32.2105L125.473 32.2105L125.499 32.2097L125.448 30.7105ZM134.518 23.5239L133.153 22.9023L134.518 23.5239ZM138.453 25.5615L138.107 24.1018L138.101 24.1032L138.453 25.5615ZM156.233 7.40281L157.695 7.73468C157.868 6.97146 157.425 6.20339 156.678 5.97066C155.931 5.73793 155.131 6.11878 154.84 6.84533L156.233 7.40281ZM174.129 31.4127C174.129 32.2412 174.8 32.9129 175.629 32.9131C176.457 32.9134 177.129 32.242 177.129 31.4135L174.129 31.4127ZM68.7964 21.888C68.381 20.9591 67.7431 20.2053 66.8418 19.8188C65.9461 19.4348 65.0263 19.515 64.2437 19.7809C62.7443 20.2903 61.3644 21.5953 60.3733 22.9668C59.3694 24.3559 58.5542 26.1022 58.4312 27.7584C58.3685 28.6023 58.4804 29.5113 58.9375 30.3296C59.4101 31.1757 60.177 31.7893 61.1659 32.1291L62.1402 29.292C61.7766 29.167 61.6327 29.0035 61.5565 28.8672C61.4648 28.703 61.39 28.424 61.4229 27.9815C61.4911 27.0644 61.9965 25.8431 62.8049 24.7245C63.6261 23.5881 64.5505 22.8453 65.2095 22.6214C65.5062 22.5206 65.6292 22.5628 65.6602 22.576C65.6857 22.587 65.8583 22.6659 66.0577 23.112L68.7964 21.888ZM61.1659 32.1291C64.6114 33.3131 68.0779 31.7532 70.8837 29.4893C73.7376 27.1865 76.2733 23.8814 78.0608 20.7426L75.4538 19.2574C73.795 22.1702 71.4836 25.1499 68.9995 27.1543C66.4672 29.1975 64.1048 29.9671 62.1402 29.292L61.1659 32.1291ZM78.0608 20.7426C80.8295 15.8808 82.35 11.7683 83.1799 8.84787C83.5947 7.388 83.8368 6.22671 83.976 5.41927C84.0456 5.01556 84.0895 4.7003 84.1164 4.4804C84.1298 4.37045 84.139 4.28433 84.1451 4.2229C84.1481 4.19219 84.1504 4.16765 84.152 4.14939C84.1528 4.14027 84.1534 4.13271 84.1539 4.12673C84.1541 4.12374 84.1543 4.12115 84.1545 4.11896C84.1546 4.11786 84.1547 4.11686 84.1547 4.11596C84.1548 4.11551 84.1548 4.11492 84.1548 4.11469C84.1549 4.11412 84.1549 4.11357 82.6592 4C81.1635 3.88642 81.1635 3.88593 81.1635 3.88545C81.1636 3.88533 81.1636 3.88487 81.1636 3.88462C81.1636 3.88412 81.1637 3.88372 81.1637 3.88341C81.1637 3.8828 81.1638 3.88258 81.1638 3.88276C81.1637 3.8831 81.1636 3.88501 81.1633 3.88847C81.1627 3.89539 81.1615 3.90851 81.1596 3.92772C81.1558 3.96615 81.1492 4.02896 81.1386 4.1153C81.1175 4.28797 81.0807 4.55474 81.0196 4.90884C80.8975 5.61704 80.6785 6.67449 80.2941 8.02712C79.5256 10.7317 78.0952 14.6192 75.4538 19.2574L78.0608 20.7426ZM82.6592 4C81.2445 3.50101 81.2445 3.50102 81.2445 3.50106C81.2445 3.50111 81.2444 3.50117 81.2444 3.50126C81.2443 3.50145 81.2442 3.50175 81.2441 3.50215C81.2438 3.50296 81.2434 3.50418 81.2428 3.50583C81.2416 3.50912 81.2399 3.51408 81.2375 3.52068C81.2329 3.53389 81.2259 3.55365 81.2167 3.5797C81.1983 3.63179 81.171 3.70901 81.1355 3.80916C81.0645 4.00947 80.9608 4.30148 80.8302 4.66763C80.569 5.40001 80.2003 6.42863 79.7706 7.61305C78.9101 9.98454 77.8086 12.9704 76.8361 15.4524L79.6294 16.5476C80.616 14.0296 81.7277 11.0155 82.5907 8.63695C83.0227 7.44637 83.3933 6.41249 83.6559 5.67611C83.7872 5.30789 83.8916 5.01396 83.9632 4.81193C83.999 4.71091 84.0266 4.63285 84.0453 4.57996C84.0546 4.55352 84.0618 4.53336 84.0666 4.51978C84.069 4.51298 84.0708 4.50783 84.072 4.50435C84.0726 4.50261 84.0731 4.50129 84.0734 4.5004C84.0736 4.49995 84.0737 4.4996 84.0738 4.49937C84.0738 4.49925 84.0738 4.49915 84.0739 4.49909C84.0739 4.49902 84.0739 4.49898 82.6592 4ZM76.8361 15.4524C75.8774 17.8992 74.6537 20.5385 73.6626 22.5786C73.1684 23.5958 72.7349 24.4582 72.4253 25.0656C72.2705 25.3692 72.1468 25.6088 72.0621 25.772C72.0198 25.8536 71.9872 25.916 71.9654 25.9577C71.9545 25.9786 71.9462 25.9943 71.9408 26.0046C71.9381 26.0098 71.9361 26.0136 71.9348 26.016C71.9342 26.0172 71.9337 26.0181 71.9335 26.0186C71.9333 26.0189 71.9332 26.0191 71.9332 26.0192C71.9331 26.0192 71.9331 26.0192 71.9331 26.0193C71.9331 26.0192 71.9332 26.0192 73.2602 26.7187C74.5873 27.4183 74.5874 27.4182 74.5874 27.4181C74.5874 27.418 74.5875 27.4179 74.5876 27.4178C74.5877 27.4175 74.5879 27.4172 74.5881 27.4167C74.5886 27.4159 74.5892 27.4147 74.59 27.4131C74.5916 27.41 74.594 27.4056 74.597 27.3998C74.6032 27.3881 74.6121 27.3711 74.6237 27.3488C74.647 27.3044 74.6811 27.2391 74.725 27.1545C74.8127 26.9854 74.9398 26.7392 75.0981 26.4286C75.4147 25.8075 75.857 24.9276 76.361 23.8901C77.3664 21.8208 78.6289 19.1008 79.6294 16.5476L76.8361 15.4524ZM73.2602 26.7187C71.845 26.2214 71.845 26.2213 71.845 26.2213C71.845 26.2213 71.845 26.2212 71.845 26.2212C71.845 26.2212 71.845 26.2213 71.845 26.2214C71.8449 26.2216 71.8448 26.2219 71.8446 26.2224C71.8443 26.2234 71.8437 26.2251 71.8428 26.2274C71.8412 26.232 71.8387 26.2392 71.8352 26.2489C71.8284 26.2683 71.818 26.2975 71.8043 26.3358C71.7769 26.4123 71.7364 26.5247 71.6846 26.666C71.5811 26.9489 71.4332 27.3463 71.2563 27.8022C70.899 28.723 70.4371 29.8475 69.992 30.7483L72.6816 32.0779C73.1863 31.0565 73.6862 29.8339 74.0532 28.888C74.2384 28.4106 74.3932 27.9948 74.5019 27.6978C74.5563 27.5492 74.5992 27.4301 74.6288 27.3475C74.6436 27.3062 74.655 27.274 74.6629 27.2518C74.6668 27.2407 74.6699 27.2321 74.672 27.2261C74.673 27.2231 74.6739 27.2208 74.6744 27.2191C74.6747 27.2183 74.675 27.2176 74.6752 27.2171C74.6752 27.2169 74.6753 27.2167 74.6754 27.2165C74.6754 27.2164 74.6754 27.2163 74.6754 27.2163C74.6755 27.2162 74.6755 27.2161 73.2602 26.7187ZM69.9961 30.74C69.9981 30.7361 70.0211 30.6895 70.0551 30.6336C70.0804 30.5935 70.1756 30.4636 70.2508 30.3785C70.642 30.0841 72.1777 30.1724 72.798 31.0777C72.8338 31.3279 72.8165 31.6572 72.802 31.7332C72.7938 31.7689 72.779 31.8249 72.7731 31.8452C72.7626 31.8801 72.7531 31.9068 72.7507 31.9137C72.7439 31.9329 72.7383 31.9473 72.7375 31.9495C72.7356 31.9543 72.7343 31.9574 72.7341 31.9581C72.7337 31.9589 72.7364 31.9524 72.7437 31.9346C72.7573 31.9016 72.7799 31.8474 72.8111 31.7733C72.8733 31.6258 72.9667 31.4063 73.0847 31.1333C73.321 30.5869 73.654 29.8309 74.0306 29.0126C74.8058 27.328 75.696 25.5357 76.3003 24.6773L73.8471 22.9499C73.0585 24.0701 72.0602 26.1174 71.3053 27.7578C70.9167 28.602 70.5742 29.3799 70.3311 29.9419C70.2096 30.223 70.1124 30.4512 70.0464 30.608C70.0135 30.686 69.9877 30.748 69.97 30.7907C69.9618 30.8107 69.9531 30.832 69.946 30.8499C69.9454 30.8513 69.9341 30.8795 69.9227 30.9116C69.92 30.9194 69.9103 30.9467 69.8997 30.982C69.8937 31.0025 69.8789 31.0586 69.8706 31.0945C69.8561 31.1706 69.8388 31.5 69.8746 31.7502C70.4949 32.6555 72.0306 32.7438 72.4219 32.4494C72.4972 32.3643 72.5924 32.2343 72.6178 32.194C72.652 32.1378 72.6752 32.0908 72.6775 32.0862L69.9961 30.74ZM76.2963 24.683C76.1566 24.8795 76.0272 24.9415 76.1537 24.8555C76.2166 24.8128 76.3248 24.7467 76.4756 24.6677C76.7771 24.5099 77.1822 24.3353 77.6164 24.2082C78.6226 23.9136 79.1769 24.0352 79.3769 24.2065L81.3276 21.9278C79.8765 20.6854 77.9258 20.9914 76.7727 21.329C76.1273 21.518 75.539 21.7714 75.0836 22.0099C74.856 22.129 74.6449 22.2531 74.4662 22.3746C74.3511 22.4529 74.058 22.6533 73.8512 22.9442L76.2963 24.683ZM79.3764 24.206C79.4109 24.2356 79.4247 24.2006 79.4067 24.3464C79.373 24.62 79.2239 25.0037 78.9292 25.6321C78.6797 26.1641 78.2976 26.9251 78.098 27.6641C77.8886 28.4392 77.7937 29.4857 78.4278 30.4726L80.9516 28.8512C80.9496 28.8483 80.9433 28.8435 80.9407 28.8022C80.9372 28.7458 80.9434 28.635 80.9942 28.4472C81.1069 28.03 81.332 27.5747 81.6455 26.9064C81.9137 26.3344 82.2831 25.5335 82.3841 24.7144C82.5009 23.7676 82.2657 22.7317 81.3281 21.9283L79.3764 24.206ZM78.4321 30.4792C79.0856 31.4844 80.097 31.9509 80.9711 32.1475C81.8446 32.3438 82.7323 32.3104 83.4195 32.1869L82.888 29.2342C82.5113 29.3019 82.0362 29.3122 81.6283 29.2205C81.221 29.1289 81.0324 28.9755 80.9473 28.8446L78.4321 30.4792ZM83.4245 32.186C85.1634 31.8673 86.293 30.3854 86.9877 29.2343C87.7159 28.0278 88.305 26.5765 88.6682 25.8013L85.9514 24.5281C85.484 25.526 85.0393 26.6563 84.4192 27.6837C83.7656 28.7665 83.2325 29.171 82.8829 29.2351L83.4245 32.186ZM88.6669 25.804C88.716 25.6997 88.7643 25.572 88.7949 25.4904C88.8319 25.3917 88.8766 25.2692 88.9214 25.1471C89.0145 24.8931 89.1208 24.6064 89.2313 24.3361C89.3471 24.0529 89.4439 23.8467 89.5109 23.7322C89.5488 23.6674 89.5368 23.7025 89.4688 23.7724C89.4333 23.8088 89.3403 23.8991 89.1869 23.9817C89.028 24.0673 88.7453 24.1748 88.3832 24.134L88.7182 21.1528C87.9285 21.0639 87.4288 21.5664 87.3182 21.6802C87.1375 21.8659 87.0062 22.0718 86.9216 22.2164C86.7434 22.5208 86.582 22.8879 86.4543 23.2005C86.3212 23.526 86.1985 23.8579 86.1049 24.1132C86.0563 24.2458 86.018 24.3507 85.9861 24.4357C85.9478 24.5377 85.9411 24.5499 85.9527 24.5254L88.6669 25.804ZM88.4121 24.137C87.7275 24.0733 87.3285 23.5977 87.1734 23.231C87.0526 22.9456 87.055 22.6999 87.0562 22.6309C87.059 22.4592 87.0931 22.333 87.0951 22.3251C87.1087 22.2708 87.1185 22.2502 87.1018 22.2952C87.0753 22.3664 87.0232 22.4937 86.9431 22.6785C86.7867 23.0394 86.5603 23.5351 86.3172 24.0568C85.8261 25.1105 85.3044 26.189 85.1977 26.3933L87.8567 27.7832C87.9997 27.5095 88.5487 26.3711 89.0364 25.3247C89.2827 24.7962 89.5228 24.2711 89.6957 23.8722C89.7803 23.6771 89.8585 23.4898 89.914 23.3407C89.9382 23.2756 89.9767 23.1684 90.0052 23.0547C90.0146 23.017 90.0527 22.868 90.0558 22.6806C90.057 22.6038 90.0587 22.3521 89.9361 22.0625C89.7792 21.6917 89.3776 21.2139 88.6892 21.1499L88.4121 24.137ZM85.1932 26.402C84.6002 27.5553 84.4128 28.7945 84.9953 29.9012C85.5421 30.9398 86.5646 31.4591 87.4467 31.7141C89.204 32.2221 91.4967 32.0106 93.0304 31.3869L91.8997 28.6078C90.9268 29.0035 89.3262 29.1348 88.2791 28.8321C87.7591 28.6818 87.6515 28.5074 87.6499 28.5043C87.6493 28.5032 87.6478 28.5006 87.6461 28.4918C87.6442 28.4822 87.6402 28.4553 87.6441 28.4053C87.6524 28.3009 87.6957 28.0963 87.8612 27.7745L85.1932 26.402ZM93.0295 31.3873C93.2337 31.3044 93.3406 31.2768 93.3741 31.2698C93.4291 31.2584 93.2962 31.298 93.0718 31.2494C92.8243 31.1957 92.3036 30.979 92.0865 30.3566C91.895 29.8076 92.0812 29.3227 92.2953 29.0441C92.4572 28.8334 93.0662 28.2529 93.9434 28.5865C94.7806 28.905 94.8458 29.6993 94.849 29.7336C94.8638 29.8921 94.8349 29.9613 94.8566 29.8681C94.8736 29.7946 94.9149 29.6508 95.0055 29.4149L92.205 28.3386C92.0821 28.6585 91.9919 28.9405 91.9341 29.1899C91.9049 29.3156 91.8814 29.4441 91.8675 29.5733C91.8539 29.6993 91.8469 29.8493 91.862 30.0115C91.8763 30.1645 91.9162 30.3958 92.0428 30.6412C92.1749 30.8973 92.4337 31.2218 92.8776 31.3906C93.0922 31.4722 93.3117 31.5012 93.5189 31.4889C93.7227 31.4769 93.9015 31.4261 94.0487 31.3621C94.3351 31.2375 94.5392 31.0481 94.6742 30.8725C94.8127 30.6922 94.9196 30.4738 94.9722 30.2283C95.0258 29.978 95.0267 29.6777 94.919 29.3691C94.8084 29.0519 94.6072 28.7962 94.3665 28.6158C94.136 28.4431 93.8973 28.3588 93.7065 28.3175C93.5153 28.276 93.338 28.27 93.191 28.2766C93.0415 28.2834 92.8974 28.3046 92.7627 28.3326C92.4965 28.3879 92.2096 28.4821 91.9007 28.6074L93.0295 31.3873ZM95.0078 29.4088C95.2167 28.8581 95.8517 27.1677 96.4267 25.7653C96.7197 25.0507 96.9746 24.4669 97.1409 24.1462C97.181 24.0689 97.2035 24.0313 97.2097 24.0216C97.2439 23.9679 97.1676 24.1093 96.9891 24.2537C96.9218 24.3082 96.5861 24.5789 96.0592 24.5712C95.3518 24.5609 94.9392 24.0921 94.7798 23.7911C94.6495 23.5451 94.6297 23.3324 94.6255 23.2881C94.6183 23.2146 94.621 23.1672 94.6211 23.164L97.6176 23.3106C97.6214 23.2319 97.6234 23.1224 97.6115 22.9998C97.6025 22.9065 97.5738 22.6576 97.4309 22.3876C97.2588 22.0627 96.8296 21.5821 96.1021 21.5715C95.555 21.5635 95.1955 21.8454 95.1011 21.9218C94.8684 22.1102 94.7243 22.3386 94.6793 22.4094C94.6062 22.5241 94.5379 22.6483 94.4776 22.7645C94.2424 23.2181 93.9424 23.9159 93.651 24.6266C93.0572 26.0746 92.4058 27.8088 92.2027 28.3446L95.0078 29.4088ZM94.6209 23.1681C94.4564 26.7492 92.7968 31.2819 91.082 35.0454C90.2371 36.8997 89.402 38.518 88.7783 39.6724C88.4668 40.249 88.2087 40.7085 88.0295 41.0221C87.9399 41.1789 87.8701 41.2992 87.8232 41.3793C87.7998 41.4194 87.7821 41.4494 87.7705 41.469C87.7648 41.4788 87.7605 41.4859 87.7579 41.4904C87.7565 41.4926 87.7556 41.4942 87.7551 41.4951C87.7548 41.4955 87.7546 41.4958 87.7546 41.4959C87.7546 41.496 87.7546 41.4959 87.7546 41.4959C87.7546 41.4958 87.7547 41.4957 89.0425 42.2651C90.3304 43.0345 90.3305 43.0343 90.3307 43.0341C90.3308 43.0339 90.3309 43.0336 90.3311 43.0333C90.3315 43.0327 90.3319 43.032 90.3324 43.0311C90.3335 43.0292 90.3351 43.0267 90.337 43.0235C90.3408 43.0171 90.3462 43.008 90.3531 42.9962C90.367 42.9727 90.3871 42.9386 90.413 42.8944C90.4647 42.806 90.5396 42.6769 90.6344 42.5109C90.8241 42.1789 91.0938 41.6987 91.4178 41.099C92.0652 39.9009 92.9324 38.2205 93.812 36.29C95.5462 32.4839 97.425 27.5027 97.6178 23.3065L94.6209 23.1681ZM87.9422 41.2454C87.9498 41.2372 87.9743 41.2111 88.0131 41.177C88.0435 41.1503 88.1317 41.0747 88.2668 41.0025C88.3619 40.9518 88.7346 40.7611 89.2371 40.8581C89.8901 40.9842 90.2262 41.4685 90.3489 41.8007C90.4489 42.0717 90.4403 42.2977 90.4375 42.3612C90.4334 42.4523 90.421 42.5188 90.4158 42.5445C90.4053 42.5972 90.3964 42.6194 90.4056 42.5914C90.4459 42.4685 90.563 42.1825 90.773 41.7124C91.1778 40.8063 91.8046 39.4865 92.4838 38.0309C93.1554 36.5918 93.8711 35.0351 94.4276 33.7067C94.7055 33.0435 94.9518 32.418 95.1349 31.8815C95.302 31.3919 95.4702 30.8279 95.498 30.3529L92.5031 30.1773C92.5038 30.1639 92.5003 30.2184 92.4618 30.3696C92.4262 30.5091 92.3716 30.6895 92.2957 30.9118C92.1439 31.3566 91.9266 31.9119 91.6606 32.5469C91.1294 33.8148 90.4363 35.3237 89.7652 36.7617C89.1019 38.1832 88.4521 39.5519 88.0339 40.488C87.8324 40.939 87.6512 41.3625 87.5551 41.6553C87.5302 41.7312 87.4973 41.839 87.4737 41.9576C87.462 42.0163 87.4457 42.1109 87.4405 42.2249C87.4366 42.3114 87.4298 42.5553 87.5346 42.839C87.6619 43.1838 88.0056 43.6756 88.6692 43.8037C89.1823 43.9028 89.5685 43.7087 89.6803 43.6491C89.9367 43.5122 90.1048 43.3259 90.1429 43.2848L87.9422 41.2454ZM95.3589 30.9016C95.7362 30.0962 96.0411 29.2389 96.3078 28.5303C96.5899 27.7812 96.8344 27.1832 97.1188 26.7075C97.3949 26.2455 97.6542 25.9943 97.9153 25.8563C98.1618 25.7261 98.5606 25.6169 99.271 25.7197L99.6998 22.7506C98.5041 22.5776 97.4368 22.7157 96.5133 23.2037C95.6044 23.6839 94.9896 24.4217 94.5437 25.1676C94.106 25.8997 93.7804 26.7284 93.5002 27.4725C93.2048 28.2572 92.9554 28.9597 92.6421 29.6286L95.3589 30.9016ZM99.2712 25.7197C100.876 25.9518 101.522 27.4853 101.039 28.6544C100.825 29.171 100.354 29.6681 99.4333 29.8626C98.464 30.0673 96.9014 29.9471 94.6263 28.9021L93.3747 31.6282C95.998 32.8332 98.2395 33.181 100.054 32.7979C101.916 32.4046 103.209 31.2581 103.811 29.8015C104.96 27.0242 103.449 23.2927 99.6997 22.7506L99.2712 25.7197ZM94.0005 30.2651C93.5021 31.6798 93.5022 31.6798 93.5022 31.6798C93.5023 31.6798 93.5024 31.6799 93.5024 31.6799C93.5026 31.68 93.5028 31.68 93.503 31.6801C93.5035 31.6803 93.5042 31.6805 93.505 31.6808C93.5066 31.6814 93.509 31.6822 93.512 31.6833C93.5181 31.6854 93.5268 31.6885 93.5381 31.6924C93.5606 31.7003 93.5934 31.7117 93.6352 31.7262C93.7188 31.7553 93.8386 31.7966 93.9853 31.8465C94.2781 31.9461 94.6803 32.0808 95.1161 32.2199C95.9268 32.4789 97.0409 32.816 97.7053 32.901L98.0854 29.9253C97.7475 29.882 96.9141 29.6451 96.0281 29.3621C95.6154 29.2303 95.2318 29.102 94.951 29.0064C94.8108 28.9587 94.6968 28.9194 94.6183 28.8921C94.579 28.8785 94.5487 28.8679 94.5284 28.8608C94.5182 28.8573 94.5106 28.8546 94.5056 28.8529C94.5032 28.852 94.5013 28.8513 94.5002 28.8509C94.4996 28.8507 94.4992 28.8506 94.499 28.8505C94.4989 28.8505 94.4988 28.8505 94.4988 28.8505C94.4988 28.8505 94.4988 28.8505 94.4988 28.8505C94.4988 28.8505 94.4989 28.8505 94.0005 30.2651ZM97.8958 32.9131C102.221 32.9131 105.985 31.918 108.675 29.2969L106.581 27.148C104.671 29.0091 101.811 29.9131 97.895 29.9131L97.8958 32.9131ZM107.628 28.2225C106.255 27.6176 106.255 27.6177 106.255 27.6177C106.255 27.6178 106.255 27.6178 106.255 27.6179C106.255 27.618 106.255 27.6182 106.255 27.6184C106.255 27.6188 106.254 27.6194 106.254 27.6201C106.253 27.6216 106.252 27.6237 106.251 27.6265C106.249 27.6319 106.245 27.6399 106.241 27.65C106.232 27.6703 106.219 27.6995 106.203 27.7358C106.172 27.8082 106.128 27.9092 106.079 28.0239C105.982 28.2488 105.858 28.5419 105.766 28.7741C105.725 28.8802 105.673 29.0153 105.637 29.1321C105.627 29.1643 105.613 29.2113 105.6 29.2657C105.592 29.2994 105.562 29.4241 105.556 29.582C105.554 29.6484 105.549 29.8494 105.624 30.0909C105.702 30.3376 105.971 30.9155 106.686 31.099C107.282 31.252 107.73 30.9941 107.837 30.9299C107.992 30.8364 108.095 30.7358 108.136 30.694C108.28 30.5485 108.375 30.3883 108.389 30.3674C108.429 30.3028 108.47 30.2307 108.511 30.1577C108.593 30.0095 108.702 29.805 108.839 29.5371L106.171 28.1659C106.038 28.4232 105.948 28.593 105.89 28.6977C105.86 28.7511 105.846 28.7751 105.843 28.7799C105.841 28.7825 105.849 28.7696 105.864 28.7479C105.871 28.7382 105.92 28.6675 106.002 28.5852C106.038 28.5484 106.137 28.4512 106.288 28.3599C106.367 28.3124 106.499 28.2428 106.675 28.1961C106.856 28.1483 107.123 28.1142 107.431 28.1931C108.143 28.376 108.411 28.9521 108.487 29.1956C108.562 29.4339 108.556 29.6305 108.554 29.6913C108.549 29.8379 108.522 29.9466 108.519 29.9598C108.511 29.9938 108.504 30.016 108.503 30.0195C108.502 30.0216 108.516 29.9796 108.557 29.8757C108.631 29.688 108.74 29.4298 108.835 29.2086C108.882 29.1001 108.923 29.0042 108.953 28.9356C108.968 28.9013 108.98 28.8739 108.989 28.8552C108.993 28.8459 108.996 28.8387 108.998 28.834C108.999 28.8316 109 28.8299 109 28.8287C109 28.8282 109.001 28.8278 109.001 28.8275C109.001 28.8274 109.001 28.8273 109.001 28.8273C109.001 28.8273 109.001 28.8273 109.001 28.8273C109.001 28.8273 109.001 28.8273 107.628 28.2225ZM108.838 29.5396C108.899 29.4217 108.988 29.2035 109.057 29.0363C109.142 28.8279 109.253 28.5525 109.379 28.2412C109.632 27.6147 109.948 26.8315 110.257 26.091C110.569 25.3412 110.859 24.6705 111.061 24.2555C111.184 24.0032 111.211 23.9808 111.16 24.0466C111.146 24.0639 111.057 24.1804 110.897 24.2955C110.81 24.3582 110.172 24.8029 109.387 24.4167C108.707 24.0817 108.601 23.4272 108.593 23.384C108.563 23.2287 108.57 23.1146 108.57 23.0999L111.567 23.245C111.57 23.1691 111.575 23.008 111.539 22.8191C111.524 22.7424 111.407 22.0677 110.712 21.7252C109.912 21.3315 109.254 21.7813 109.143 21.8609C108.96 21.9929 108.843 22.1382 108.799 22.1952C108.623 22.4199 108.466 22.7325 108.365 22.9395C108.119 23.443 107.799 24.188 107.487 24.9367C107.171 25.6949 106.849 26.4934 106.597 27.1174C106.47 27.4315 106.362 27.6985 106.281 27.8981C106.182 28.1389 106.156 28.1941 106.172 28.1633L108.838 29.5396ZM108.57 23.1029C108.528 24.0157 108.096 24.9836 107.434 26.2334C106.835 27.3642 105.993 28.81 105.662 30.3034L108.591 30.9534C108.811 29.9613 109.381 28.9686 110.085 27.6376C110.727 26.4256 111.49 24.9083 111.567 23.242L108.57 23.1029ZM105.726 30.0912C104.121 34.2793 103.155 37.0908 102.589 38.8657C102.306 39.7533 102.122 40.3829 102.008 40.7969C101.95 41.0039 101.91 41.1572 101.884 41.2621C101.871 41.3146 101.861 41.355 101.854 41.384C101.851 41.3985 101.848 41.4101 101.846 41.419C101.845 41.4235 101.844 41.4272 101.843 41.4303C101.843 41.4318 101.843 41.4332 101.842 41.4344C101.842 41.435 101.842 41.4356 101.842 41.4361C101.842 41.4363 101.842 41.4367 101.842 41.4368C101.842 41.4372 101.842 41.4375 103.305 41.7651C104.769 42.0928 104.769 42.0931 104.769 42.0934C104.769 42.0935 104.769 42.0938 104.769 42.0939C104.769 42.0943 104.769 42.0946 104.769 42.0948C104.769 42.0953 104.769 42.0957 104.769 42.0958C104.769 42.0962 104.769 42.0958 104.769 42.0946C104.769 42.0924 104.771 42.0873 104.773 42.0792C104.776 42.0631 104.783 42.0352 104.793 41.9947C104.814 41.9138 104.848 41.7831 104.899 41.5971C105.002 41.225 105.174 40.6331 105.447 39.7783C105.993 38.0682 106.938 35.3115 108.527 31.1656L105.726 30.0912ZM103.305 41.7651C102.132 40.8306 102.132 40.8305 102.132 40.8303C102.132 40.8303 102.132 40.8302 102.132 40.8302C102.132 40.8301 102.132 40.8301 102.132 40.8301C102.132 40.83 102.132 40.8302 102.132 40.8304C102.132 40.831 102.131 40.8321 102.129 40.8338C102.127 40.8372 102.122 40.8428 102.116 40.8503C102.104 40.8654 102.085 40.8881 102.062 40.9166C102.015 40.9739 101.949 41.0525 101.876 41.1372C101.801 41.223 101.724 41.3087 101.653 41.3827C101.618 41.4194 101.588 41.4497 101.563 41.4736C101.551 41.4853 101.541 41.4944 101.533 41.5011C101.526 41.5079 101.522 41.5108 101.522 41.5107C101.522 41.5106 101.524 41.5093 101.527 41.507C101.53 41.5047 101.535 41.501 101.542 41.4962C101.554 41.4875 101.579 41.4699 101.616 41.4487C101.651 41.4288 101.715 41.3945 101.804 41.3622C101.887 41.3319 102.041 41.2851 102.243 41.2801C102.456 41.2748 102.751 41.3168 103.044 41.4996C103.343 41.6855 103.519 41.9419 103.612 42.1613C103.699 42.365 103.718 42.5403 103.722 42.6362C103.727 42.7377 103.719 42.8143 103.714 42.8528C103.703 42.9263 103.69 42.957 103.702 42.9213C103.711 42.8932 103.73 42.8388 103.767 42.7514C103.84 42.5758 103.96 42.3165 104.146 41.9492L101.47 40.5928C101.266 40.9948 101.109 41.328 100.996 41.6001C100.897 41.8383 100.783 42.141 100.742 42.44C100.726 42.5565 100.678 42.9284 100.852 43.3371C100.955 43.578 101.144 43.8499 101.458 44.0458C101.768 44.2386 102.082 44.285 102.318 44.2792C102.723 44.2692 103.019 44.1031 103.109 44.0511C103.241 43.9757 103.349 43.893 103.422 43.8333C103.692 43.6124 103.975 43.2955 104.141 43.1041C104.236 42.9948 104.319 42.8955 104.378 42.8236C104.408 42.7875 104.432 42.7577 104.449 42.7365C104.458 42.7258 104.465 42.7173 104.47 42.7111C104.472 42.708 104.474 42.7054 104.476 42.7035C104.477 42.7026 104.477 42.7018 104.478 42.7011C104.478 42.7008 104.478 42.7005 104.479 42.7003C104.479 42.7002 104.479 42.7 104.479 42.7C104.479 42.6998 104.479 42.6997 103.305 41.7651ZM104.144 41.9527C106.351 37.6241 109.436 30.5057 111.125 25.896L108.308 24.8633C106.658 29.3662 103.621 36.3736 101.471 40.5893L104.144 41.9527ZM111.126 25.8927C111.188 25.7237 111.316 25.5705 111.632 25.4581C111.975 25.3356 112.469 25.2981 113.018 25.4004C113.564 25.5022 114.046 25.7211 114.368 25.9803C114.685 26.2353 114.763 26.4511 114.772 26.5915L117.765 26.396C117.687 25.1963 117.024 24.2676 116.248 23.6433C115.478 23.0233 114.516 22.6283 113.567 22.4513C112.622 22.2749 111.572 22.2937 110.623 22.6326C109.645 22.9814 108.733 23.6945 108.307 24.8665L111.126 25.8927ZM114.772 26.5915C114.839 27.6111 114.568 28.3697 113.837 28.848C112.985 29.4048 111.138 29.8477 107.4 29.1536L106.853 32.1032C110.833 32.8422 113.645 32.5578 115.479 31.3591C117.433 30.0817 117.874 28.0564 117.765 26.396L114.772 26.5915ZM107.127 30.6284C106.733 32.0756 106.733 32.0758 106.734 32.0759C106.734 32.0759 106.734 32.0761 106.735 32.0762C106.736 32.0764 106.736 32.0766 106.737 32.0769C106.739 32.0774 106.741 32.078 106.744 32.0786C106.749 32.08 106.755 32.0817 106.763 32.0836C106.778 32.0876 106.798 32.0928 106.824 32.0992C106.874 32.1119 106.945 32.1291 107.036 32.1497C107.217 32.1909 107.476 32.2459 107.809 32.3061C108.476 32.4264 109.438 32.5677 110.658 32.6614C113.099 32.8489 116.574 32.8467 120.78 32.1057L120.259 29.1512C116.331 29.8432 113.11 29.841 110.887 29.6702C109.776 29.5848 108.915 29.4574 108.342 29.3538C108.055 29.302 107.84 29.2562 107.701 29.2247C107.632 29.2089 107.582 29.1967 107.552 29.1891C107.537 29.1853 107.527 29.1827 107.521 29.1813C107.519 29.1806 107.517 29.1803 107.517 29.1802C107.517 29.1802 107.517 29.1803 107.518 29.1804C107.518 29.1805 107.519 29.1806 107.519 29.1807C107.519 29.1808 107.52 29.1809 107.52 29.1809C107.52 29.1811 107.521 29.1812 107.127 30.6284ZM120.52 32.1284C123.781 32.1284 126.319 30.4357 127.704 28.4234C128.393 27.4225 128.842 26.2771 128.905 25.1473C128.968 24.0012 128.626 22.7857 127.624 21.9281L125.673 24.2063C125.8 24.3151 125.935 24.5279 125.91 24.9807C125.884 25.4499 125.679 26.074 125.233 26.7218C124.348 28.0069 122.693 29.1284 120.519 29.1284L120.52 32.1284ZM127.624 21.9281C126.602 21.0525 125.393 20.951 124.32 21.3568C123.353 21.7227 122.544 22.4715 121.926 23.2441C120.703 24.7739 119.739 27.0297 119.739 28.8763L122.739 28.8771C122.739 27.8809 123.352 26.2656 124.269 25.1181C124.722 24.552 125.124 24.2606 125.383 24.1627C125.536 24.1045 125.567 24.1154 125.673 24.2063L127.624 21.9281ZM119.739 28.8347C119.717 29.6409 119.939 30.4021 120.481 31.0052C120.991 31.573 121.65 31.8475 122.211 31.9922C123.261 32.2631 124.593 32.2105 125.448 32.2105L125.448 29.2105C124.336 29.2105 123.535 29.2359 122.959 29.0873C122.707 29.0222 122.678 28.9627 122.712 29.0001C122.777 29.0728 122.733 29.1074 122.738 28.9188L119.739 28.8347ZM125.499 32.2097C130.761 32.0337 134.043 28.1889 135.883 24.1455L133.153 22.9023C131.513 26.5052 128.988 29.0913 125.397 29.2114L125.499 32.2097ZM135.883 24.1455C136.146 23.5682 136.328 23.1172 136.42 22.806C136.444 22.7256 136.473 22.6175 136.492 22.499C136.502 22.44 136.514 22.3492 136.516 22.2407C136.517 22.1554 136.515 21.9352 136.421 21.6785C136.318 21.396 136.02 20.8894 135.361 20.7275C134.806 20.5912 134.382 20.8072 134.251 20.8811C133.97 21.0391 133.802 21.2548 133.773 21.2914C133.569 21.5431 133.368 21.926 133.205 22.2688C133.019 22.6599 132.81 23.157 132.605 23.7297L135.43 24.7405C135.603 24.256 135.775 23.852 135.915 23.557C136.078 23.2136 136.149 23.1254 136.104 23.18C136.09 23.1971 136.06 23.2338 136.014 23.2787C135.977 23.3145 135.878 23.408 135.724 23.4948C135.606 23.5616 135.192 23.7751 134.646 23.6409C133.995 23.4811 133.704 22.9812 133.604 22.7101C133.515 22.4648 133.515 22.2609 133.516 22.1966C133.517 22.1091 133.527 22.0442 133.531 22.0161C133.541 21.9593 133.55 21.9329 133.543 21.9549C133.514 22.0534 133.406 22.3451 133.153 22.9023L135.883 24.1455ZM132.605 23.7297C132.314 24.5435 132.264 25.5348 132.928 26.352C133.504 27.0608 134.353 27.2859 134.945 27.3689C136.176 27.5414 137.704 27.2846 138.804 27.0199L138.101 24.1032C137.072 24.3509 136.005 24.4881 135.361 24.3979C135.016 24.3496 135.109 24.2791 135.256 24.461C135.492 24.7511 135.343 24.9839 135.43 24.7405L132.605 23.7297ZM138.798 27.0212C138.78 27.0255 138.533 27.0878 138.204 26.9715C137.778 26.8213 137.508 26.4825 137.399 26.1565C137.355 26.0221 137.344 25.9124 137.342 25.8497C137.339 25.7855 137.344 25.7429 137.346 25.7297C137.349 25.708 137.348 25.7299 137.322 25.8121C137.198 26.2085 136.922 26.7701 136.556 27.5987C136.248 28.2957 135.846 29.2478 135.751 30.0856C135.704 30.503 135.698 31.1581 136.077 31.7602C136.516 32.4576 137.23 32.7239 137.871 32.7624L138.05 29.7678C138.077 29.7694 138.398 29.817 138.615 30.1616C138.772 30.411 138.714 30.5792 138.732 30.4233C138.767 30.1143 138.963 29.5736 139.299 28.8125C139.578 28.183 139.993 27.3211 140.185 26.7092C140.238 26.5393 140.292 26.3352 140.321 26.1193C140.346 25.9257 140.37 25.5843 140.246 25.2115C140.097 24.761 139.748 24.3356 139.202 24.1426C138.751 23.9835 138.339 24.0468 138.107 24.1018L138.798 27.0212ZM137.871 32.7624C141.311 32.9694 152.877 28.9987 157.695 7.73468L154.77 7.07093C150.153 27.4462 139.529 29.8568 138.05 29.7678L137.871 32.7624ZM156.233 7.40281C154.84 6.84533 154.84 6.84545 154.84 6.84567C154.84 6.84588 154.84 6.8462 154.839 6.84661C154.839 6.84744 154.839 6.84867 154.838 6.85029C154.837 6.85354 154.835 6.85837 154.832 6.86477C154.827 6.87757 154.819 6.89661 154.809 6.9217C154.789 6.97189 154.76 7.04626 154.721 7.14319C154.644 7.33705 154.53 7.62117 154.386 7.98256C154.099 8.70534 153.689 9.7373 153.201 10.9746C152.223 13.4487 150.93 16.7456 149.665 20.0336C148.401 23.3184 147.161 26.6065 146.294 29.0583C145.863 30.2787 145.514 31.3188 145.301 32.0549C145.199 32.4085 145.109 32.7575 145.067 33.0391C145.052 33.1395 145.011 33.4183 145.066 33.7218C145.09 33.852 145.18 34.2849 145.582 34.6315C146.108 35.0858 146.726 35.0426 147.087 34.9175L146.106 32.0825C146.438 31.9675 147.032 31.9213 147.541 32.36C147.924 32.691 148.001 33.0956 148.018 33.1853C148.058 33.4078 148.023 33.5566 148.035 33.4812C148.045 33.4113 148.086 33.2257 148.184 32.8879C148.371 32.241 148.694 31.27 149.123 30.0589C149.975 27.6478 151.203 24.3913 152.464 21.1115C153.725 17.8348 155.015 14.5469 155.991 12.0773C156.478 10.8427 156.887 9.8131 157.174 9.09228C157.317 8.73188 157.43 8.44869 157.507 8.25569C157.546 8.1592 157.575 8.08525 157.595 8.03547C157.605 8.01058 157.613 7.99174 157.618 7.97914C157.62 7.97284 157.622 7.9681 157.623 7.96495C157.624 7.96337 157.625 7.96219 157.625 7.96141C157.625 7.96102 157.625 7.96074 157.625 7.96055C157.625 7.96036 157.625 7.96028 156.233 7.40281ZM147.087 34.9175C150.099 33.8754 157.185 30.9787 163.614 29.5125C166.849 28.7748 169.683 28.4607 171.634 28.8198C172.59 28.9957 173.191 29.308 173.547 29.6712C173.872 30.0027 174.129 30.5134 174.129 31.4127L177.129 31.4135C177.129 29.8753 176.659 28.5607 175.689 27.5717C174.751 26.6145 173.491 26.1112 172.176 25.8694C169.588 25.3931 166.247 25.835 162.947 26.5876C156.305 28.1021 148.875 31.1239 146.106 32.0825L147.087 34.9175ZM154.825 6.8829L145.189 32.9801L148.004 34.0199L157.64 7.92271L154.825 6.8829Z" fill="black"/>
<path d="M91.1165 16.5451C90.6247 16.0615 91.6084 16.0615 91.6084 16.0615" stroke="black" stroke-width="3" stroke-linecap="round"/>
<path d="M139.732 16.5383C149.901 19.7654 156.097 14.7564 164.869 16.5139" stroke="black" stroke-width="3" stroke-linecap="round"/>
<path d="M21.4692 17.0009C21.4692 17.0009 19.9121 9.91506 31.9595 10.5C52.5365 11.4991 55.7125 39.8494 20.7034 29C11.0201 25.9991 5.24178 23.4992 2.01401 29" stroke="black" stroke-width="3" stroke-linecap="round"/>
<path d="M37.2892 17.6997C13.699 42.2669 47.8612 46.3976 55.5526 29.1913C59.6449 20.0365 46.5083 18.3846 49.7256 13.5554C52.6855 9.11257 66.75 4.76089 64.5729 13.4637" stroke="black" stroke-width="3" stroke-linecap="round"/>
</svg>
